<?xml version="1.0" encoding="utf-8"?>
<!-- Generator: Adobe Illustrator 25.2.3, SVG Export Plug-In . SVG Version: 6.00 Build 0)  -->
<svg version="1.1" id="Layer_5" xmlns="http://www.w3.org/2000/svg" xmlns:xlink="http://www.w3.org/1999/xlink" x="0px" y="0px"
	 viewBox="0 0 218 218" style="enable-background:new 0 0 218 218;" xml:space="preserve">
<path d="M172.3,99H68.4l40.3-40.3c3.5-3.5,3.5-9.2,0-12.7l0,0c-3.5-3.5-9.2-3.5-12.7,0L46.7,95.3l-6.4,6.4c-3.5,3.5-3.5,9.2,0,12.7
	l6.4,6.4L95.9,170c3.5,3.5,9.2,3.5,12.7,0h0c3.5-3.5,3.5-9.2,0-12.7L68.4,117h103.9c5,0,9-4,9-9v0C181.3,103,177.3,99,172.3,99z"/>
</svg>
