<?xml version="1.0" encoding="utf-8"?>
<!-- Generator: Adobe Illustrator 25.2.3, SVG Export Plug-In . SVG Version: 6.00 Build 0)  -->
<svg version="1.1" id="Layer_2" xmlns="http://www.w3.org/2000/svg" xmlns:xlink="http://www.w3.org/1999/xlink" x="0px" y="0px"
	 viewBox="0 0 50 50" style="enable-background:new 0 0 50 50;" xml:space="preserve">
<style type="text/css">
	.st0{fill:#231F20;}
</style>
<g id="Layer_3">
	<path class="st0" d="M35,30.6h-0.8v-8.7c0-3.8-3.1-8.5-6.9-8.5v-1.1c0-1.3-1-2.3-2.3-2.3c-1.3,0-2.3,1-2.3,2.3v1.1
		c-3.8,0-6.9,4.7-6.9,8.5v8.7H15c-1.3,0-2.3,1-2.3,2.3s1,2.3,2.3,2.3h10h10c1.3,0,2.3-1,2.3-2.3S36.3,30.6,35,30.6z"/>
	<path class="st0" d="M21.9,36.8c0,1.7,1.4,3.1,3.1,3.1s3.1-1.4,3.1-3.1H21.9z"/>
</g>
</svg>
