<?xml version="1.0" encoding="utf-8"?>
<!-- Generator: Adobe Illustrator 25.2.3, SVG Export Plug-In . SVG Version: 6.00 Build 0)  -->
<svg version="1.1" xmlns="http://www.w3.org/2000/svg" xmlns:xlink="http://www.w3.org/1999/xlink" x="0px" y="0px"
	 viewBox="0 0 218 218" style="enable-background:new 0 0 218 218;" xml:space="preserve">
<style type="text/css">
	.st0{display:none;}
	.st1{display:inline;fill:#404041;stroke:#231F20;stroke-miterlimit:10;}
	.st2{display:inline;fill:none;stroke:#2E3191;stroke-miterlimit:10;}
	.st3{display:inline;}
	.st4{fill:#FFFFFF;}
	.st5{fill:none;}
	.st6{display:inline;fill:#1F1700;}
	.st7{fill:#1F1700;}
</style>
<g id="Layer_1" class="st0">
	<g id="Layer_2_1_">
		<rect x="-50" y="-50" class="st1" width="318" height="318"/>
		<rect x="46.2" y="46.2" class="st2" width="125.6" height="125.6"/>
	</g>
	<g id="Person">
		<g class="st3">
			<circle class="st4" cx="109.1" cy="76.9" r="30.2"/>
			<path class="st4" d="M169.3,171.2L169.3,171.2c0,0.1,0,0.1-0.1,0.1H48.8c0,0-0.1,0-0.1-0.1l0,0c0-29.4,23.8-53.2,53.2-53.2h14.2
				C145.5,118,169.3,141.8,169.3,171.2z"/>
			<line class="st5" x1="169.3" y1="171.3" x2="48.7" y2="171.3"/>
		</g>
	</g>
	<g id="Home" class="st3">
		<g>
			<path class="st4" d="M165.5,110.6L165.5,110.6c-2.3,2.7-6.4,3.1-9.1,0.7l-43.2-36.7c-2.4-2.1-5.9-2.1-8.3,0l-43.2,36.7
				c-2.7,2.3-6.8,2-9.1-0.7l0,0c-2.3-2.7-2-6.8,0.7-9.1l51.5-43.8c2.4-2,5.9-2,8.3,0l51.6,43.8C167.4,103.8,167.8,107.9,165.5,110.6
				z"/>
			<path class="st4" d="M109,62.1L68.9,96.2v57.4c0,4.5,3.7,8.2,8.2,8.2h19.8v-32.6c0-3.5,2.8-6.3,6.2-6.3h5.9h5.9
				c3.4,0,6.2,2.8,6.2,6.3v32.6h19.8c4.5,0,8.2-3.7,8.2-8.2V96.8L109,62.1z"/>
		</g>
	</g>
	<rect class="st6" width="218" height="218"/>
</g>
<g id="Layer_2" class="st0">
	
		<image style="display:inline;overflow:visible;" width="473" height="446" xlink:href="5FB05D6D.jpg"  transform="matrix(0.1992 0 0 0.1992 70.9444 67.5481)">
	</image>
</g>
<g id="Layer_3">
	<path class="st7" d="M148.1,132.9h-3.2v-34c0-14.9-12.1-33.2-26.9-33.2v-4.3c0-5-4-9-9-9s-9,4-9,9v4.3c-14.9,0-26.9,18.4-26.9,33.2
		v34h-3.2c-5.1,0-9.2,4.1-9.2,9.2s4.1,9.2,9.2,9.2H109h39.1c5.1,0,9.2-4.1,9.2-9.2S153.2,132.9,148.1,132.9z"/>
	<path class="st7" d="M96.7,157.2c0,6.8,5.5,12.3,12.3,12.3s12.3-5.5,12.3-12.3"/>
</g>
</svg>
