<?xml version="1.0" encoding="utf-8"?>
<!-- Generator: Adobe Illustrator 25.2.3, SVG Export Plug-In . SVG Version: 6.00 Build 0)  -->
<svg version="1.1" id="Layer_5" xmlns="http://www.w3.org/2000/svg" xmlns:xlink="http://www.w3.org/1999/xlink" x="0px" y="0px"
	 viewBox="0 0 50 50" style="enable-background:new 0 0 50 50;" xml:space="preserve">
<g>
	<circle cx="25" cy="26.8" r="4.5"/>
	<path d="M38.9,15.5H33v-1.2c0-1.3-1-2.3-2.3-2.3H19.4c-1.3,0-2.3,1-2.3,2.3v1.2h-5.9c-2.1,0-3.8,1.7-3.8,3.8v15
		c0,2.1,1.7,3.8,3.8,3.8H25h13.9c2.1,0,3.8-1.7,3.8-3.8v-15C42.7,17.2,41,15.5,38.9,15.5z M25,34.3c-4.2,0-7.6-3.4-7.6-7.6
		s3.4-7.6,7.6-7.6s7.6,3.4,7.6,7.6S29.2,34.3,25,34.3z"/>
</g>
</svg>
