<?xml version="1.0" encoding="utf-8"?>
<!-- Generator: Adobe Illustrator 25.2.3, SVG Export Plug-In . SVG Version: 6.00 Build 0)  -->
<svg version="1.1" id="Layer_2" xmlns="http://www.w3.org/2000/svg" xmlns:xlink="http://www.w3.org/1999/xlink" x="0px" y="0px"
	 viewBox="0 0 50 50" style="enable-background:new 0 0 50 50;" xml:space="preserve">
<style type="text/css">
	.st0{fill:none;}
</style>
<circle cx="25" cy="26.8" r="4.5"/>
<path d="M16.1,13.8h-3.4v-3.4c0-0.9-0.7-1.7-1.7-1.7h0c-0.9,0-1.7,0.7-1.7,1.7v3.4H6c-0.9,0-1.7,0.7-1.7,1.7v0
	c0,0.9,0.7,1.7,1.7,1.7h3.4v3.4c0,0.9,0.7,1.7,1.7,1.7h0c0.9,0,1.7-0.7,1.7-1.7v-3.4h3.4c0.9,0,1.7-0.7,1.7-1.7v0
	C17.8,14.5,17,13.8,16.1,13.8z"/>
<line class="st0" x1="19.8" y1="15.4" x2="19.8" y2="12"/>
<line class="st0" x1="11.1" y1="24.2" x2="7.4" y2="24.2"/>
<path d="M38.9,15.5H33v-1.2c0-1.3-1-2.3-2.3-2.3h-9.4c-0.8,0-1.5,0.7-1.5,1.5v1.9c0,2-1.6,3.7-3.7,3.7h-1.4v1.4c0,2-1.7,3.7-3.7,3.7
	H8.5c-0.6,0-1.1,0.5-1.1,1.1v9.1c0,2.1,1.7,3.8,3.8,3.8h27.7c2.1,0,3.8-1.7,3.8-3.8v-15C42.7,17.2,41,15.5,38.9,15.5z M32.5,28.2
	c-0.6,3-3,5.4-6,6c-5.4,1-10-3.6-8.9-8.9c0.6-3,3-5.4,6-6C28.9,18.2,33.5,22.8,32.5,28.2z M37.4,22.4c-1.1,0-1.9-0.9-1.9-1.9
	s0.9-1.9,1.9-1.9c1.1,0,1.9,0.9,1.9,1.9S38.4,22.4,37.4,22.4z"/>
</svg>
