<?xml version="1.0" encoding="utf-8"?>
<!-- Generator: Adobe Illustrator 25.2.3, SVG Export Plug-In . SVG Version: 6.00 Build 0)  -->
<svg version="1.1" id="Layer_1" xmlns="http://www.w3.org/2000/svg" xmlns:xlink="http://www.w3.org/1999/xlink" x="0px" y="0px"
	 viewBox="0 0 50 50" style="enable-background:new 0 0 50 50;" xml:space="preserve">
<g id="Layer_2_1_">
	<path d="M35.5,30.3L30.3,25l5.3-5.3c1.4-1.4,1.6-3.7,0-5.3l0,0c-1.4-1.4-3.7-1.6-5.3,0L25,19.7l-5.3-5.3c-1.4-1.4-3.7-1.6-5.3,0
		l0,0c-1.4,1.4-1.6,3.7,0,5.3l5.3,5.3l-5.3,5.3c-1.4,1.4-1.6,3.7,0,5.3l0,0c1.4,1.4,3.7,1.6,5.3,0l5.3-5.3l5.3,5.3
		c1.4,1.4,3.7,1.6,5.3,0l0,0C36.8,34,36.9,31.7,35.5,30.3z"/>
</g>
</svg>
