<?xml version="1.0" encoding="utf-8"?>
<!-- Generator: Adobe Illustrator 25.2.3, SVG Export Plug-In . SVG Version: 6.00 Build 0)  -->
<svg version="1.1" id="Layer_5" xmlns="http://www.w3.org/2000/svg" xmlns:xlink="http://www.w3.org/1999/xlink" x="0px" y="0px"
	 viewBox="0 0 50 50" style="enable-background:new 0 0 50 50;" xml:space="preserve">
<g>
	<path d="M34.4,27.4v8.2c0,0.4-0.3,0.7-0.7,0.7H14.5c-0.4,0-0.7-0.3-0.7-0.7V16.3c0-0.4,0.3-0.7,0.7-0.7h8.2l4.5-4.5H14.5
		c-2.9,0-5.2,2.3-5.2,5.2v19.2c0,2.9,2.3,5.2,5.2,5.2h19.2c2.9,0,5.2-2.3,5.2-5.2V22.9L34.4,27.4z"/>
	<g>
		<path d="M40.1,9.9L40.1,9.9c-0.9-0.9-2.4-0.9-3.3,0l-1,1l3.3,3.3l1-1C41,12.3,41,10.8,40.1,9.9z"/>
		<path d="M22.5,24.3l-2.8,2.8L19.1,30c-0.1,0.6,0.4,1,0.9,0.9l2.9-0.6l2.8-2.8l12.1-12.1l-3.3-3.3L22.5,24.3z"/>
	</g>
</g>
</svg>
