<?xml version="1.0" encoding="utf-8"?>
<!-- Generator: Adobe Illustrator 25.2.3, SVG Export Plug-In . SVG Version: 6.00 Build 0)  -->
<svg version="1.1" xmlns="http://www.w3.org/2000/svg" xmlns:xlink="http://www.w3.org/1999/xlink" x="0px" y="0px"
	 viewBox="0 0 50 50" style="enable-background:new 0 0 50 50;" xml:space="preserve">
<style type="text/css">
	.st0{fill:none;stroke:#000000;stroke-width:3;stroke-linecap:round;stroke-miterlimit:10;}
	.st1{fill:none;stroke:#000000;stroke-width:2;stroke-linecap:round;stroke-miterlimit:10;}
</style>
<g id="Layer_1">
	<path class="st0" d="M21.1,12h17.3c2.4,0,4.3,1.9,4.3,4.3v17.6c0,2.4-1.9,4.3-4.3,4.3H11.7c-2.4,0-4.3-1.9-4.3-4.3V25"/>
	<polyline class="st0" points="25.3,29.6 29.8,25.1 36.3,31.5 	"/>
	<polyline class="st0" points="13.1,31.5 20.2,24.4 27.2,31.5 	"/>
	<circle class="st1" cx="34.9" cy="19.5" r="2.9"/>
</g>
<g id="Layer_2">
	<path d="M16.3,14h-3.4v-3.4c0-0.9-0.7-1.7-1.7-1.7h0c-0.9,0-1.7,0.7-1.7,1.7V14H6.1c-0.9,0-1.7,0.7-1.7,1.7v0
		c0,0.9,0.7,1.7,1.7,1.7h3.4v3.4c0,0.9,0.7,1.7,1.7,1.7h0c0.9,0,1.7-0.7,1.7-1.7v-3.4h3.4c0.9,0,1.7-0.7,1.7-1.7v0
		C17.9,14.8,17.2,14,16.3,14z"/>
</g>
</svg>
