<?xml version="1.0" encoding="utf-8"?>
<!-- Generator: Adobe Illustrator 25.2.3, SVG Export Plug-In . SVG Version: 6.00 Build 0)  -->
<svg version="1.1" xmlns="http://www.w3.org/2000/svg" xmlns:xlink="http://www.w3.org/1999/xlink" x="0px" y="0px"
	 viewBox="0 0 50 50" style="enable-background:new 0 0 50 50;" xml:space="preserve">
<style type="text/css">
	.st0{display:none;}
	.st1{display:inline;}
	.st2{fill:#FFFFFF;}
</style>
<g id="Layer_1" class="st0">
	<g id="Home" class="st1">
	</g>
</g>
<g id="Layer_2">
	<g>
		<path class="st2" d="M41.9,25.5L41.9,25.5c-0.7,0.8-1.9,0.9-2.7,0.2l-13-11c-0.7-0.6-1.8-0.6-2.5,0l-13,11c-0.8,0.7-2,0.6-2.7-0.2
			l0,0c-0.7-0.8-0.6-2,0.2-2.7L23.7,9.6c0.7-0.6,1.8-0.6,2.5,0l15.5,13.2C42.5,23.5,42.6,24.7,41.9,25.5z"/>
		<path class="st2" d="M24.9,11l-12,10.3v17.2c0,1.4,1.1,2.5,2.5,2.5h5.9v-9.8c0-1.1,0.8-1.9,1.9-1.9h1.8h1.8c1,0,1.9,0.9,1.9,1.9
			v9.8h5.9c1.4,0,2.5-1.1,2.5-2.5V21.4L24.9,11z"/>
	</g>
</g>
</svg>
