<?xml version="1.0" encoding="utf-8"?>
<!-- Generator: Adobe Illustrator 25.2.3, SVG Export Plug-In . SVG Version: 6.00 Build 0)  -->
<svg version="1.1" id="Layer_2" xmlns="http://www.w3.org/2000/svg" xmlns:xlink="http://www.w3.org/1999/xlink" x="0px" y="0px"
	 viewBox="0 0 50 50" style="enable-background:new 0 0 50 50;" xml:space="preserve">
<path d="M33.6,22.9V18c0-4.8-3.9-8.6-8.6-8.6c-4.8,0-8.6,3.9-8.6,8.6v4.9c-2,0.8-3.4,2.7-3.4,5v7.5c0,3,2.4,5.4,5.4,5.4h13.3
	c3,0,5.4-2.4,5.4-5.4v-7.5C37,25.6,35.6,23.7,33.6,22.9z M25,13.5c2.5,0,4.5,2,4.5,4.5v4.5h-9V18C20.5,15.5,22.5,13.5,25,13.5z"/>
</svg>
