<?xml version="1.0" encoding="utf-8"?>
<!-- Generator: Adobe Illustrator 25.2.3, SVG Export Plug-In . SVG Version: 6.00 Build 0)  -->
<svg version="1.1" xmlns="http://www.w3.org/2000/svg" xmlns:xlink="http://www.w3.org/1999/xlink" x="0px" y="0px"
	 viewBox="0 0 218 218" style="enable-background:new 0 0 218 218;" xml:space="preserve">
<style type="text/css">
	.st0{display:none;}
	.st1{display:inline;fill:#404041;stroke:#231F20;stroke-miterlimit:10;}
	.st2{display:inline;fill:none;stroke:#2E3191;stroke-miterlimit:10;}
	.st3{fill:#FFFFFF;}
	.st4{fill:none;}
	.st5{display:inline;}
</style>
<g id="Layer_2" class="st0">
	<rect x="-50" y="-50" class="st1" width="318" height="318"/>
	<rect x="46.22" y="46.22" class="st2" width="125.56" height="125.56"/>
</g>
<g id="Person">
	<g>
		<circle class="st3" cx="109.1" cy="76.89" r="30.23"/>
		<path class="st3" d="M169.33,171.24L169.33,171.24c0,0.05-0.04,0.1-0.1,0.1H48.77c-0.05,0-0.1-0.04-0.1-0.1v0
			c0-29.4,23.83-53.23,53.23-53.23h14.21C145.5,118.01,169.33,141.84,169.33,171.24z"/>
		<line class="st4" x1="169.33" y1="171.34" x2="48.67" y2="171.34"/>
	</g>
</g>
<g id="Home" class="st0">
	<g class="st5">
		<path class="st3" d="M165.47,110.57L165.47,110.57c-2.31,2.72-6.38,3.05-9.09,0.74L113.18,74.6c-2.41-2.05-5.95-2.05-8.35,0
			l-43.19,36.71c-2.72,2.31-6.79,1.98-9.09-0.74l0,0c-2.31-2.71-1.98-6.79,0.74-9.09l51.55-43.8c2.41-2.05,5.95-2.05,8.35,0
			l51.55,43.8C167.44,103.79,167.77,107.86,165.47,110.57z"/>
		<path class="st3" d="M109,62.08L68.93,96.24v57.4c0,4.54,3.68,8.22,8.22,8.22H96.9v-32.59c0-3.5,2.76-6.34,6.16-6.34H109h5.94
			c3.4,0,6.16,2.84,6.16,6.34v32.59h19.75c4.54,0,8.22-3.68,8.22-8.22v-56.8L109,62.08z"/>
	</g>
</g>
</svg>
