<?xml version="1.0" encoding="utf-8"?>
<!-- Generator: Adobe Illustrator 25.2.3, SVG Export Plug-In . SVG Version: 6.00 Build 0)  -->
<svg version="1.1" xmlns="http://www.w3.org/2000/svg" xmlns:xlink="http://www.w3.org/1999/xlink" x="0px" y="0px"
	 viewBox="0 0 50 50" style="enable-background:new 0 0 50 50;" xml:space="preserve">
<style type="text/css">
	.st0{fill:#231F20;}
</style>
<g id="Layer_2">
</g>
<g id="Layer_3">
	<g>
		<path class="st0" d="M15.6,21.2c0,0.1,0,0.3,0,0.4c-0.2,0-0.4,0-0.6,0c-3.6,0-6.4-2.9-6.4-6.5c0-3.6,3.3-6.6,6.9-6.3
			C18,9,20,10.6,20.9,12.7C17.8,14.2,15.6,17.5,15.6,21.2z"/>
		<path class="st0" d="M18.4,27.8c-3.5,1.3-6.3,3.9-7.8,7.3H5.8C3.7,35.1,2.2,33,3,31c0.6-1.5,1.4-2.8,2.5-3.9c2-2,4.8-3.3,7.9-3.3
			H16C16.5,25.4,17.3,26.8,18.4,27.8z"/>
	</g>
	<g>
		<path class="st0" d="M41.4,15.2c0,3.5-2.9,6.4-6.4,6.4c-0.2,0-0.4,0-0.6,0c0-0.1,0-0.2,0-0.4c0-3.7-2.2-6.9-5.3-8.5
			c1-2.3,3.2-3.9,5.9-3.9C38.5,8.8,41.4,11.7,41.4,15.2z"/>
		<path class="st0" d="M44.1,35.1h-4.8c-1.5-3.3-4.3-5.9-7.8-7.2c1.1-1.1,1.9-2.5,2.4-4h2.4c4.8,0,8.9,2.9,10.5,7.1
			C47.7,33,46.2,35.1,44.1,35.1z"/>
	</g>
	<g>
		<circle class="st0" cx="25" cy="21.2" r="6.4"/>
		<path class="st0" d="M35.5,41.1H14.4c-1.3,0-2.2-1.2-1.9-2.5c0.5-2.1,1.5-4,3-5.5c2-2,4.8-3.3,7.9-3.3h3c5.4,0,9.9,3.7,11,8.7
			C37.7,39.9,36.8,41.1,35.5,41.1z"/>
	</g>
</g>
</svg>
