<?xml version="1.0" encoding="utf-8"?>
<!-- Generator: Adobe Illustrator 25.2.3, SVG Export Plug-In . SVG Version: 6.00 Build 0)  -->
<svg version="1.1" id="Layer_5" xmlns="http://www.w3.org/2000/svg" xmlns:xlink="http://www.w3.org/1999/xlink" x="0px" y="0px"
	 viewBox="0 0 218 218" style="enable-background:new 0 0 218 218;" xml:space="preserve">
<g>
	<path d="M96.7,138.9c-24.3,0-44.1-19.8-44.1-44.1c0-24.3,19.8-44.1,44.1-44.1s44.1,19.8,44.1,44.1
		C140.8,119.1,121,138.9,96.7,138.9z M96.7,67.7c-15,0-27.1,12.2-27.1,27.1s12.2,27.1,27.1,27.1s27.1-12.2,27.1-27.1
		S111.7,67.7,96.7,67.7z"/>
	<path d="M156.9,167.3c-2.2,0-4.4-0.8-6-2.5l-37-37c-3.3-3.3-3.3-8.7,0-12c3.3-3.3,8.7-3.3,12,0l37,37c3.3,3.3,3.3,8.7,0,12
		C161.3,166.5,159.1,167.3,156.9,167.3z"/>
</g>
</svg>
