<?xml version="1.0" encoding="utf-8"?>
<!-- Generator: Adobe Illustrator 25.2.3, SVG Export Plug-In . SVG Version: 6.00 Build 0)  -->
<svg version="1.1" id="Layer_5" xmlns="http://www.w3.org/2000/svg" xmlns:xlink="http://www.w3.org/1999/xlink" x="0px" y="0px"
	 viewBox="0 0 218 218" style="enable-background:new 0 0 218 218;" xml:space="preserve">
<path d="M109,48.7c-33.3,0-60.3,27-60.3,60.3s27,60.3,60.3,60.3s60.3-27,60.3-60.3S142.3,48.7,109,48.7z M140.2,138.1l-2.6,2.6
	c-1.1,1.1-3,1.1-4.1,0L105,112.2c-0.5-0.5-0.8-1.3-0.8-2V69.9c0-1.6,1.3-2.9,2.9-2.9h3.6c1.6,0,2.9,1.3,2.9,2.9v36.4
	c0,0.8,0.3,1.5,0.8,2l25.7,25.7C141.3,135.2,141.3,137,140.2,138.1z"/>
</svg>
