<?xml version="1.0" encoding="utf-8"?>
<!-- Generator: Adobe Illustrator 25.2.3, SVG Export Plug-In . SVG Version: 6.00 Build 0)  -->
<svg version="1.1" id="Layer_3" xmlns="http://www.w3.org/2000/svg" xmlns:xlink="http://www.w3.org/1999/xlink" x="0px" y="0px"
	 viewBox="0 0 218 218" style="enable-background:new 0 0 218 218;" xml:space="preserve">
<path d="M161,45.9h-33.1v0c0-5.2-4.2-9.4-9.4-9.4H109h-9.4c-5.2,0-9.4,4.2-9.4,9.4v0H57c-5.5,0-9.9,4.4-9.9,9.9v8.9
	c0,5.5,4.4,9.9,9.9,9.9h4.6v85.8c0,10.4,8.4,18.8,18.8,18.8H109h28.7c10.4,0,18.8-8.4,18.8-18.8V74.6h4.6c5.5,0,9.9-4.4,9.9-9.9
	v-8.9C170.9,50.3,166.5,45.9,161,45.9z M90.1,155.3c0,2.6-2.1,4.8-4.8,4.8s-4.8-2.1-4.8-4.8V88.6c0-2.6,2.1-4.8,4.8-4.8
	s4.8,2.1,4.8,4.8V155.3z M113.8,155.3c0,2.6-2.1,4.8-4.8,4.8s-4.8-2.1-4.8-4.8V88.6c0-2.6,2.1-4.8,4.8-4.8s4.8,2.1,4.8,4.8V155.3z
	 M137.4,155.3c0,2.6-2.1,4.8-4.8,4.8s-4.8-2.1-4.8-4.8V88.6c0-2.6,2.1-4.8,4.8-4.8s4.8,2.1,4.8,4.8V155.3z"/>
</svg>
