<?xml version="1.0" encoding="utf-8"?>
<!-- Generator: Adobe Illustrator 25.2.3, SVG Export Plug-In . SVG Version: 6.00 Build 0)  -->
<svg version="1.1" id="Layer_1" xmlns="http://www.w3.org/2000/svg" xmlns:xlink="http://www.w3.org/1999/xlink" x="0px" y="0px"
	 viewBox="0 0 274.8 300" style="enable-background:new 0 0 274.8 300;" xml:space="preserve">
<style type="text/css">
	.st0{clip-path:url(#SVGID_1_);fill:#3AED7C;}
</style>
<g>
	<g>
		<defs>
			<rect id="SVGID_3_" x="-0.1" y="0.7" width="274.8" height="300"/>
		</defs>
		<clipPath id="SVGID_1_">
			<use xlink:href="#SVGID_3_"  style="overflow:visible;"/>
		</clipPath>
		<path class="st0" d="M315.4,276c-28.2,23-43,38.2-51.1,51c-0.4,0.7-1.4,0.8-2,0.2c-4.7-4.7-22.6-22.6-27.9-27.9
			c-1.2-1.2-0.8-1.8,1.3-2.8c4.6-2.3,13.6-3.2,24.5,7.2c0.4,0.4,1.1,0.4,1.6,0c23.7-23.5,37.9-30.6,53-29.6
			C315.7,274.1,316.2,275.3,315.4,276z"/>
		<path class="st0" d="M40.6,276c-28.2,23-43,38.2-51.1,51c-0.4,0.7-1.4,0.8-2,0.2c-4.7-4.7-22.6-22.6-27.9-27.9
			c-1.2-1.2-0.8-1.8,1.3-2.8c4.6-2.3,13.6-3.2,24.5,7.2c0.4,0.4,1.1,0.4,1.6,0c23.7-23.5,37.9-30.6,53-29.6
			C40.9,274.1,41.4,275.3,40.6,276z"/>
		<path class="st0" d="M178,126c-28.2,23-43,38.2-51.1,51c-0.4,0.7-1.4,0.8-2,0.2c-4.7-4.7-22.6-22.6-27.9-27.9
			c-1.2-1.2-0.8-1.8,1.3-2.8c4.6-2.3,13.6-3.2,24.5,7.2c0.4,0.4,1.1,0.4,1.6,0c23.7-23.5,37.9-30.6,53-29.6
			C178.3,124.1,178.8,125.3,178,126z"/>
		<path class="st0" d="M315.4-24c-28.2,23-43,38.2-51.1,51c-0.4,0.7-1.4,0.8-2,0.2c-4.7-4.7-22.6-22.6-27.9-27.9
			c-1.2-1.2-0.8-1.8,1.3-2.8c4.6-2.3,13.6-3.2,24.5,7.2c0.4,0.4,1.1,0.4,1.6,0c23.7-23.5,37.9-30.6,53-29.6
			C315.7-25.9,316.2-24.7,315.4-24z"/>
		<path class="st0" d="M40.6-24c-28.2,23-43,38.2-51.1,51c-0.4,0.7-1.4,0.8-2,0.2c-4.7-4.7-22.6-22.6-27.9-27.9
			c-1.2-1.2-0.8-1.8,1.3-2.8c4.6-2.3,13.6-3.2,24.5,7.2c0.4,0.4,1.1,0.4,1.6,0C10.6-19.9,24.9-27,39.9-26
			C40.9-25.9,41.4-24.7,40.6-24z"/>
	</g>
</g>
</svg>
