<?xml version="1.0" encoding="utf-8"?>
<!-- Generator: Adobe Illustrator 25.2.3, SVG Export Plug-In . SVG Version: 6.00 Build 0)  -->
<svg version="1.1" xmlns="http://www.w3.org/2000/svg" xmlns:xlink="http://www.w3.org/1999/xlink" x="0px" y="0px"
	 viewBox="0 0 300 300" style="enable-background:new 0 0 300 300;" xml:space="preserve">
<style type="text/css">
	.st0{display:none;}
	.st1{display:inline;}
	.st2{fill:#3AED7C;}
	.st3{fill:#1F3C68;}
</style>
<g id="Layer_1" class="st0">
	<g class="st1">
		<path class="st2" d="M285.5,195.4c-123.3-12.6-195.8-11.6-246-0.3c-2.7,0.6-5.3-1.5-5.3-4.3c0-22.5,0-109,0-134.7
			c0-5.8,2.4-6.2,9.8-3.7c16.5,5.6,40.7,25,41.8,76.4c0.1,2.1,1.8,3.8,3.8,3.8c113.7,0.4,165.3,17.6,199.1,56.4
			C291.1,191.7,289,195.8,285.5,195.4z"/>
		<path class="st3" d="M40.4,208.4c10.9-2.8,19.9-4.1,33.1-5.6c6.5-0.8,12.3,4.3,12.3,10.9v37.9c0,6-4.9,11-10.9,11H45.2
			c-6,0-11-4.9-11-10.9c0,0,0-34.2,0-36.8C34.2,210.1,39.1,208.7,40.4,208.4z"/>
		<g>
			<path class="st3" d="M196.4,114.7V63.7c0-6-4.9-11-10.9-11h-29.8c-6.1,0-10.9,4.9-10.9,11v47.6c0,5.7,4.4,10.4,10,10.9
				c10.3,0.9,19.9,2,29.1,3.4C190.5,126.6,196.4,121.4,196.4,114.7z"/>
			<path class="st3" d="M144.8,210.6c0,13.1,0,34.6,0,45.3c0,3.6,2.9,6.6,6.6,6.6h34.1c6.1,0,10.9-4.9,10.9-10.9
				c0-11.3,0-28.8,0-39.9c0-5.8-4.6-10.6-10.4-10.9c-10.5-0.5-20.5-0.9-30.1-1.1C149.8,199.5,144.8,204.4,144.8,210.6z"/>
		</g>
	</g>
</g>
<g id="Layer_2">
	<g>
		<path d="M43.5,146.8c-0.4-0.3-0.5-0.8-0.5-1.3v-42.8c0-0.5,0.2-0.9,0.5-1.3c0.4-0.4,0.8-0.5,1.3-0.5h13c0.5,0,0.9,0.2,1.3,0.5
			c0.4,0.4,0.5,0.8,0.5,1.3v13.9h10.7v-13.9c0-0.5,0.2-0.9,0.5-1.3c0.4-0.4,0.8-0.5,1.3-0.5h13c0.5,0,0.9,0.2,1.3,0.5
			c0.4,0.4,0.5,0.8,0.5,1.3v42.8c0,0.5-0.2,0.9-0.5,1.3c-0.4,0.4-0.8,0.5-1.3,0.5H72c-0.5,0-0.9-0.2-1.3-0.5
			c-0.4-0.4-0.5-0.8-0.5-1.3v-14.3H59.5v14.3c0,0.5-0.2,0.9-0.5,1.3c-0.4,0.4-0.8,0.5-1.3,0.5h-13C44.2,147.3,43.8,147.2,43.5,146.8
			z"/>
		<path d="M90.9,146.9c-0.3-0.3-0.4-0.6-0.4-1c0-0.2,0-0.3,0.1-0.5l14.8-42.3c0.2-0.6,0.5-1.1,1-1.5c0.5-0.4,1.1-0.7,2-0.7h14.4
			c0.8,0,1.5,0.2,2,0.7c0.5,0.4,0.8,1,1,1.5l14.8,42.3c0,0.1,0.1,0.3,0.1,0.5c0,0.4-0.1,0.7-0.4,1c-0.3,0.3-0.6,0.4-1,0.4h-12.3
			c-1.3,0-2.2-0.6-2.6-1.7l-1.6-4.4h-14.2l-1.6,4.4c-0.4,1.1-1.3,1.7-2.6,1.7H91.9C91.5,147.3,91.2,147.2,90.9,146.9z M111.7,128.4
			h7.5l-3.8-12.3L111.7,128.4z"/>
		<path d="M144.7,146.8c-0.4-0.4-0.5-0.8-0.5-1.3v-42.8c0-0.5,0.2-0.9,0.5-1.3c0.4-0.4,0.8-0.5,1.3-0.5h22c6.3,0,10.9,1.1,13.9,3.4
			c3,2.3,4.5,5.8,4.5,10.5c0,1.9-0.6,3.6-1.7,5.1c-1.1,1.5-2.3,2.6-3.6,3.2c1.8,0.7,3.3,2,4.5,3.7c1.2,1.8,1.8,3.7,1.8,5.9
			c0,4.9-1.6,8.6-4.8,11c-3.2,2.4-7.8,3.6-13.9,3.6h-22.7C145.4,147.3,145,147.1,144.7,146.8z M166.3,118.4c0.9,0,1.6-0.3,2-0.9
			c0.5-0.6,0.7-1.3,0.7-2.1s-0.2-1.5-0.7-2.1c-0.5-0.6-1.1-0.9-2-0.9h-5.6v6H166.3z M166.9,135.9c1,0,1.8-0.3,2.3-1
			c0.5-0.7,0.8-1.4,0.8-2.3c0-0.8-0.3-1.6-0.8-2.3c-0.6-0.7-1.3-1-2.2-1h-6.2v6.5H166.9z"/>
		<path d="M193.3,146.8c-0.4-0.4-0.5-0.8-0.5-1.3v-42.8c0-0.5,0.2-0.9,0.5-1.3c0.4-0.4,0.8-0.5,1.3-0.5h13.5c0.5,0,0.9,0.2,1.3,0.5
			c0.4,0.4,0.5,0.8,0.5,1.3v42.8c0,0.5-0.2,0.9-0.5,1.3c-0.4,0.4-0.8,0.5-1.3,0.5h-13.5C194.1,147.3,193.7,147.1,193.3,146.8z"/>
		<path d="M228,146.8c-0.4-0.4-0.5-0.8-0.5-1.3v-30.4h-11c-0.5,0-0.9-0.2-1.3-0.5c-0.4-0.4-0.5-0.8-0.5-1.3v-10.7
			c0-0.5,0.2-0.9,0.5-1.3c0.4-0.4,0.8-0.5,1.3-0.5h38.8c0.5,0,0.9,0.2,1.3,0.5c0.4,0.4,0.5,0.8,0.5,1.3v10.7c0,0.5-0.2,0.9-0.5,1.3
			c-0.4,0.4-0.8,0.5-1.3,0.5h-11v30.4c0,0.5-0.2,0.9-0.5,1.3c-0.4,0.4-0.8,0.5-1.3,0.5h-13.3C228.7,147.3,228.3,147.1,228,146.8z"/>
	</g>
	<g>
		<path d="M51.4,183.5c-0.1-0.1-0.2-0.3-0.2-0.6v-23.1h-7.4c-0.3,0-0.4-0.1-0.6-0.2c-0.2-0.1-0.2-0.3-0.2-0.6v-0.6
			c0-0.2,0.1-0.5,0.2-0.6c0.1-0.2,0.3-0.2,0.6-0.2h17.2c0.3,0,0.5,0.1,0.6,0.2c0.2,0.2,0.2,0.4,0.2,0.6v0.6c0,0.3-0.1,0.4-0.2,0.6
			c-0.2,0.2-0.4,0.2-0.6,0.2h-7.4v23.1c0,0.2-0.1,0.4-0.2,0.6c-0.2,0.1-0.4,0.2-0.6,0.2H52C51.7,183.7,51.5,183.7,51.4,183.5z"/>
		<path d="M75.9,183.5c-0.1-0.1-0.2-0.3-0.2-0.6v-24.5c0-0.2,0.1-0.5,0.2-0.6c0.2-0.2,0.3-0.2,0.6-0.2h8.7c2.7,0,4.8,0.6,6.3,1.9
			c1.5,1.3,2.3,3.2,2.3,5.7c0,2-0.5,3.6-1.5,4.8c-1,1.2-2.4,2-4.2,2.5l6,10.3c0.1,0.1,0.1,0.3,0.1,0.4c0,0.2-0.1,0.4-0.2,0.5
			c-0.2,0.1-0.3,0.2-0.5,0.2h-0.4c-0.4,0-0.7-0.1-0.8-0.2c-0.2-0.2-0.4-0.4-0.6-0.8l-6-10.1H78v10.3c0,0.2-0.1,0.4-0.2,0.6
			c-0.2,0.1-0.4,0.2-0.6,0.2h-0.7C76.2,183.7,76,183.7,75.9,183.5z M85,170.4c2.2,0,3.8-0.4,4.8-1.3c1.1-0.9,1.6-2.2,1.6-4
			c0-1.8-0.5-3.1-1.6-4c-1.1-0.9-2.7-1.3-4.8-1.3h-7v10.6H85z"/>
		<path d="M106.6,183.5c-0.1-0.1-0.2-0.3-0.2-0.5l0.1-0.4l9.5-24.3c0.2-0.5,0.6-0.7,1.1-0.7h1.3c0.5,0,0.9,0.2,1.1,0.7l9.5,24.3
			l0.1,0.4c0,0.2-0.1,0.4-0.2,0.5c-0.1,0.1-0.3,0.2-0.5,0.2h-0.7c-0.2,0-0.4-0.1-0.5-0.2c-0.1-0.1-0.2-0.2-0.3-0.4l-2.3-6H111
			l-2.3,6c-0.1,0.1-0.1,0.2-0.3,0.4c-0.1,0.1-0.3,0.2-0.5,0.2h-0.7C106.9,183.7,106.7,183.7,106.6,183.5z M111.9,174.9h11.5
			l-5.7-14.8L111.9,174.9z"/>
		<path d="M143.8,181.4c-1.6-1.8-2.5-4.3-2.6-7.4c0-0.7,0-1.8,0-3.3c0-1.5,0-2.7,0-3.4c0.1-3.1,1-5.6,2.6-7.4
			c1.6-1.8,4.1-2.8,7.3-2.8c2.2,0,4.1,0.4,5.5,1.2c1.5,0.8,2.6,1.8,3.3,3.1c0.7,1.2,1.1,2.5,1.2,3.8v0.1c0,0.2-0.1,0.4-0.2,0.5
			c-0.2,0.1-0.3,0.2-0.6,0.2h-0.7c-0.4,0-0.7-0.3-0.8-0.8c-0.5-2.1-1.3-3.6-2.6-4.5c-1.2-0.9-2.9-1.3-5.1-1.3c-2.3,0-4.2,0.7-5.5,2
			c-1.3,1.3-2,3.4-2.1,6.1c0,0.7,0,1.7,0,3.1c0,1.4,0,2.5,0,3.2c0.1,2.7,0.8,4.8,2.1,6.1c1.3,1.3,3.1,2,5.5,2c2.1,0,3.8-0.4,5.1-1.3
			c1.2-0.9,2.1-2.4,2.6-4.5c0.1-0.5,0.4-0.8,0.8-0.8h0.7c0.2,0,0.4,0.1,0.6,0.2c0.2,0.1,0.2,0.3,0.2,0.5c-0.1,1.3-0.5,2.6-1.2,3.8
			c-0.7,1.2-1.8,2.3-3.3,3.1c-1.5,0.8-3.3,1.2-5.5,1.2C147.9,184.1,145.4,183.2,143.8,181.4z"/>
		<path d="M176.2,183.5c-0.1-0.1-0.2-0.3-0.2-0.6v-24.5c0-0.2,0.1-0.5,0.2-0.6c0.2-0.2,0.3-0.2,0.6-0.2h0.7c0.3,0,0.5,0.1,0.6,0.2
			c0.1,0.2,0.2,0.4,0.2,0.6v9.7l11.3-10c0.2-0.2,0.4-0.3,0.6-0.4c0.2-0.1,0.5-0.2,0.8-0.2h0.6c0.2,0,0.4,0.1,0.5,0.2
			c0.1,0.2,0.2,0.3,0.2,0.5s-0.1,0.4-0.2,0.5l-12.7,11.3l13.5,12.4c0.2,0.2,0.2,0.3,0.2,0.5s-0.1,0.4-0.2,0.5
			c-0.1,0.1-0.3,0.2-0.5,0.2h-0.6c-0.3,0-0.6-0.1-0.8-0.2c-0.2-0.1-0.4-0.2-0.6-0.4l-12.1-11.1v10.8c0,0.2-0.1,0.4-0.2,0.6
			c-0.2,0.1-0.4,0.2-0.6,0.2h-0.7C176.6,183.7,176.4,183.7,176.2,183.5z"/>
		<path d="M207.1,183.5c-0.1-0.1-0.2-0.3-0.2-0.6v-24.5c0-0.2,0.1-0.5,0.2-0.6c0.2-0.2,0.3-0.2,0.6-0.2h14.6c0.3,0,0.5,0.1,0.6,0.2
			c0.2,0.2,0.2,0.4,0.2,0.6v0.6c0,0.3-0.1,0.4-0.2,0.6c-0.2,0.2-0.4,0.2-0.6,0.2h-13.1v9.6h12.2c0.3,0,0.5,0.1,0.6,0.2
			c0.1,0.1,0.2,0.4,0.2,0.6v0.6c0,0.2-0.1,0.4-0.2,0.6c-0.2,0.1-0.4,0.2-0.6,0.2h-12.2v9.9h13.4c0.3,0,0.5,0.1,0.6,0.2
			c0.1,0.1,0.2,0.4,0.2,0.6v0.6c0,0.2-0.1,0.4-0.2,0.6c-0.2,0.1-0.4,0.2-0.6,0.2h-14.9C207.5,183.7,207.3,183.7,207.1,183.5z"/>
		<path d="M238.6,183.5c-0.1-0.1-0.2-0.3-0.2-0.6v-24.5c0-0.2,0.1-0.5,0.2-0.6c0.2-0.2,0.3-0.2,0.6-0.2h8.7c2.7,0,4.8,0.6,6.3,1.9
			c1.5,1.3,2.3,3.2,2.3,5.7c0,2-0.5,3.6-1.5,4.8c-1,1.2-2.4,2-4.2,2.5l6,10.3c0.1,0.1,0.1,0.3,0.1,0.4c0,0.2-0.1,0.4-0.2,0.5
			c-0.2,0.1-0.3,0.2-0.5,0.2h-0.4c-0.4,0-0.7-0.1-0.8-0.2c-0.2-0.2-0.4-0.4-0.6-0.8l-6-10.1h-7.7v10.3c0,0.2-0.1,0.4-0.2,0.6
			c-0.2,0.1-0.4,0.2-0.6,0.2h-0.7C239,183.7,238.8,183.7,238.6,183.5z M247.8,170.4c2.2,0,3.8-0.4,4.8-1.3c1.1-0.9,1.6-2.2,1.6-4
			c0-1.8-0.5-3.1-1.6-4c-1.1-0.9-2.7-1.3-4.8-1.3h-7v10.6H247.8z"/>
	</g>
</g>
</svg>
