<?xml version="1.0" encoding="utf-8"?>
<!-- Generator: Adobe Illustrator 25.2.3, SVG Export Plug-In . SVG Version: 6.00 Build 0)  -->
<svg version="1.1" id="Layer_1" xmlns="http://www.w3.org/2000/svg" xmlns:xlink="http://www.w3.org/1999/xlink" x="0px" y="0px"
	 viewBox="0 0 300 300" style="enable-background:new 0 0 300 300;" xml:space="preserve">
<style type="text/css">
	.st0{fill:#1F3C68;}
</style>
<g>
	<path class="st0" d="M285.53,195.41c-123.32-12.61-195.76-11.63-246.01-0.29c-2.73,0.62-5.31-1.46-5.31-4.26
		c0-22.46,0-109.03,0-134.69c0-5.84,2.36-6.21,9.82-3.68c16.48,5.59,40.65,24.99,41.78,76.39c0.05,2.1,1.75,3.79,3.85,3.8
		c113.67,0.37,165.3,17.63,199.14,56.37C291.1,191.68,289,195.76,285.53,195.41z"/>
	<path class="st0" d="M40.42,208.37c10.92-2.77,19.91-4.08,33.12-5.65c6.54-0.77,12.32,4.28,12.32,10.87l0,37.94
		c0,6.05-4.9,10.95-10.95,10.95H45.16c-6.05,0-10.95-4.9-10.95-10.95c0,0,0-34.16,0-36.84C34.21,210.13,39.06,208.72,40.42,208.37z"
		/>
	<g>
		<path class="st0" d="M196.41,114.74V63.68c0-6.05-4.9-10.95-10.95-10.95h-29.75c-6.05,0-10.95,4.9-10.95,10.95l0,47.58
			c0,5.69,4.37,10.41,10.03,10.91c10.26,0.89,19.93,2.02,29.06,3.41C190.47,126.57,196.41,121.44,196.41,114.74z"/>
		<path class="st0" d="M144.77,210.58c0,13.15,0,34.61,0,45.35c0,3.63,2.94,6.56,6.57,6.56h34.13c6.05,0,10.95-4.89,10.95-10.94
			c0-11.3,0-28.81,0-39.89c0-5.84-4.6-10.64-10.43-10.93c-10.51-0.52-20.52-0.88-30.06-1.09
			C149.78,199.5,144.77,204.44,144.77,210.58z"/>
	</g>
</g>
</svg>
